<mxfile host="app.diagrams.net" modified="2023-10-13T03:58:58.635Z" agent="Mozilla/5.0 (Macintosh; Intel Mac OS X 10_15_7) AppleWebKit/605.1.15 (KHTML, like Gecko) Version/17.0 Safari/605.1.15" etag="9rk0qz-iwzrSdKU5aND5" version="22.0.4" type="device" pages="2">
  <diagram name="Billing" id="74e2e168-ea6b-b213-b513-2b3c1d86103e">
    <mxGraphModel dx="898" dy="710" grid="1" gridSize="10" guides="1" tooltips="1" connect="1" arrows="1" fold="1" page="1" pageScale="1" pageWidth="1100" pageHeight="850" background="none" math="0" shadow="0">
      <root>
        <mxCell id="0" />
        <mxCell id="1" parent="0" />
        <mxCell id="77e6c97f196da883-1" value="&lt;font style=&quot;font-size: 10px;&quot;&gt;Balance&lt;/font&gt;" style="swimlane;html=1;childLayout=stackLayout;startSize=20;rounded=0;shadow=0;labelBackgroundColor=none;strokeWidth=1;fontFamily=Verdana;fontSize=8;align=center;" parent="1" vertex="1" collapsed="1">
          <mxGeometry x="70" y="40" width="80" height="20" as="geometry">
            <mxRectangle x="70" y="40" width="320" height="560" as="alternateBounds" />
          </mxGeometry>
        </mxCell>
        <mxCell id="77e6c97f196da883-2" value="Klien" style="swimlane;html=1;startSize=20;" parent="77e6c97f196da883-1" vertex="1">
          <mxGeometry y="20" width="160" height="540" as="geometry">
            <mxRectangle y="20" width="40" height="540" as="alternateBounds" />
          </mxGeometry>
        </mxCell>
        <mxCell id="77e6c97f196da883-8" value="Request data yang akan dicek saldo" style="rounded=1;whiteSpace=wrap;html=1;shadow=0;labelBackgroundColor=none;strokeWidth=1;fontFamily=Verdana;fontSize=8;align=center;" parent="77e6c97f196da883-2" vertex="1">
          <mxGeometry x="20" y="65" width="100" height="60" as="geometry" />
        </mxCell>
        <mxCell id="77e6c97f196da883-9" value="Notifikasi akun belum terdaftar" style="rounded=1;whiteSpace=wrap;html=1;shadow=0;labelBackgroundColor=none;strokeWidth=1;fontFamily=Verdana;fontSize=8;align=center;" parent="77e6c97f196da883-2" vertex="1">
          <mxGeometry x="20" y="200" width="100" height="60" as="geometry" />
        </mxCell>
        <mxCell id="12lHFFpcLLlAsnCE0LpX-5" value="Informasi saldo" style="rounded=1;whiteSpace=wrap;html=1;shadow=0;labelBackgroundColor=none;strokeWidth=1;fontFamily=Verdana;fontSize=8;align=center;" vertex="1" parent="77e6c97f196da883-2">
          <mxGeometry x="20" y="350" width="100" height="60" as="geometry" />
        </mxCell>
        <mxCell id="77e6c97f196da883-26" style="edgeStyle=orthogonalEdgeStyle;rounded=1;html=1;labelBackgroundColor=none;startArrow=none;startFill=0;startSize=5;endArrow=classicThin;endFill=1;endSize=5;jettySize=auto;orthogonalLoop=1;strokeWidth=1;fontFamily=Verdana;fontSize=8" parent="77e6c97f196da883-1" source="77e6c97f196da883-8" target="77e6c97f196da883-11" edge="1">
          <mxGeometry relative="1" as="geometry" />
        </mxCell>
        <mxCell id="77e6c97f196da883-3" value="Sistem" style="swimlane;html=1;startSize=20;" parent="77e6c97f196da883-1" vertex="1">
          <mxGeometry x="160" y="20" width="160" height="540" as="geometry">
            <mxRectangle x="160" y="20" width="40" height="540" as="alternateBounds" />
          </mxGeometry>
        </mxCell>
        <mxCell id="12lHFFpcLLlAsnCE0LpX-3" style="edgeStyle=none;curved=1;rounded=0;orthogonalLoop=1;jettySize=auto;html=1;exitX=0.5;exitY=1;exitDx=0;exitDy=0;entryX=0.5;entryY=0;entryDx=0;entryDy=0;fontSize=12;startSize=8;endSize=8;" edge="1" parent="77e6c97f196da883-3" source="77e6c97f196da883-11" target="12lHFFpcLLlAsnCE0LpX-1">
          <mxGeometry relative="1" as="geometry" />
        </mxCell>
        <mxCell id="77e6c97f196da883-11" value="Cek akun sudah terdaftar/" style="rounded=1;whiteSpace=wrap;html=1;shadow=0;labelBackgroundColor=none;strokeWidth=1;fontFamily=Verdana;fontSize=8;align=center;" parent="77e6c97f196da883-3" vertex="1">
          <mxGeometry x="30" y="65" width="100" height="60" as="geometry" />
        </mxCell>
        <mxCell id="12lHFFpcLLlAsnCE0LpX-13" value="&lt;font style=&quot;font-size: 10px;&quot;&gt;Ya&lt;/font&gt;" style="edgeStyle=none;curved=1;rounded=0;orthogonalLoop=1;jettySize=auto;html=1;exitX=0.5;exitY=1;exitDx=0;exitDy=0;entryX=0.5;entryY=0;entryDx=0;entryDy=0;fontSize=12;startSize=8;endSize=8;" edge="1" parent="77e6c97f196da883-3" source="12lHFFpcLLlAsnCE0LpX-1" target="12lHFFpcLLlAsnCE0LpX-11">
          <mxGeometry relative="1" as="geometry" />
        </mxCell>
        <mxCell id="12lHFFpcLLlAsnCE0LpX-1" value="&lt;font style=&quot;font-size: 9px;&quot;&gt;User sudah terdaftar?&lt;/font&gt;" style="rhombus;whiteSpace=wrap;html=1;fontSize=16;" vertex="1" parent="77e6c97f196da883-3">
          <mxGeometry x="40" y="190" width="80" height="80" as="geometry" />
        </mxCell>
        <mxCell id="12lHFFpcLLlAsnCE0LpX-11" value="Menampilkan saldo" style="rounded=1;whiteSpace=wrap;html=1;shadow=0;labelBackgroundColor=none;strokeWidth=1;fontFamily=Verdana;fontSize=8;align=center;" vertex="1" parent="77e6c97f196da883-3">
          <mxGeometry x="30" y="350" width="100" height="60" as="geometry" />
        </mxCell>
        <mxCell id="12lHFFpcLLlAsnCE0LpX-4" value="&lt;font&gt;&lt;font style=&quot;font-size: 9px;&quot;&gt;Tidak&lt;/font&gt;&lt;br&gt;&lt;/font&gt;" style="edgeStyle=none;curved=1;rounded=0;orthogonalLoop=1;jettySize=auto;html=1;exitX=0;exitY=0.5;exitDx=0;exitDy=0;entryX=1;entryY=0.5;entryDx=0;entryDy=0;fontSize=12;startSize=8;endSize=8;" edge="1" parent="77e6c97f196da883-1" source="12lHFFpcLLlAsnCE0LpX-1" target="77e6c97f196da883-9">
          <mxGeometry y="-20" relative="1" as="geometry">
            <mxPoint as="offset" />
          </mxGeometry>
        </mxCell>
        <mxCell id="12lHFFpcLLlAsnCE0LpX-15" style="edgeStyle=none;curved=1;rounded=0;orthogonalLoop=1;jettySize=auto;html=1;exitX=0;exitY=0.5;exitDx=0;exitDy=0;entryX=1;entryY=0.5;entryDx=0;entryDy=0;fontSize=12;startSize=8;endSize=8;" edge="1" parent="77e6c97f196da883-1" source="12lHFFpcLLlAsnCE0LpX-11" target="12lHFFpcLLlAsnCE0LpX-5">
          <mxGeometry relative="1" as="geometry" />
        </mxCell>
        <mxCell id="12lHFFpcLLlAsnCE0LpX-17" value="&lt;font style=&quot;font-size: 10px;&quot;&gt;Transaction&lt;/font&gt;" style="swimlane;html=1;childLayout=stackLayout;startSize=20;rounded=0;shadow=0;labelBackgroundColor=none;strokeWidth=1;fontFamily=Verdana;fontSize=8;align=center;" vertex="1" collapsed="1" parent="1">
          <mxGeometry x="290" y="40" width="80" height="20" as="geometry">
            <mxRectangle x="290" y="40" width="320" height="800" as="alternateBounds" />
          </mxGeometry>
        </mxCell>
        <mxCell id="12lHFFpcLLlAsnCE0LpX-18" value="Klien" style="swimlane;html=1;startSize=20;" vertex="1" parent="12lHFFpcLLlAsnCE0LpX-17">
          <mxGeometry y="20" width="160" height="780" as="geometry">
            <mxRectangle y="20" width="40" height="540" as="alternateBounds" />
          </mxGeometry>
        </mxCell>
        <mxCell id="12lHFFpcLLlAsnCE0LpX-19" value="Request data akun yang akan melakukan transaksi potong saldo" style="rounded=1;whiteSpace=wrap;html=1;shadow=0;labelBackgroundColor=none;strokeWidth=1;fontFamily=Verdana;fontSize=8;align=center;" vertex="1" parent="12lHFFpcLLlAsnCE0LpX-18">
          <mxGeometry x="20" y="65" width="100" height="60" as="geometry" />
        </mxCell>
        <mxCell id="12lHFFpcLLlAsnCE0LpX-20" value="Notifikasi akun belum terdaftar" style="rounded=1;whiteSpace=wrap;html=1;shadow=0;labelBackgroundColor=none;strokeWidth=1;fontFamily=Verdana;fontSize=8;align=center;" vertex="1" parent="12lHFFpcLLlAsnCE0LpX-18">
          <mxGeometry x="20" y="200" width="100" height="60" as="geometry" />
        </mxCell>
        <mxCell id="12lHFFpcLLlAsnCE0LpX-34" value="Informasi saldo kurang/habis" style="rounded=1;whiteSpace=wrap;html=1;shadow=0;labelBackgroundColor=none;strokeWidth=1;fontFamily=Verdana;fontSize=8;align=center;" vertex="1" parent="12lHFFpcLLlAsnCE0LpX-18">
          <mxGeometry x="20" y="460" width="100" height="60" as="geometry" />
        </mxCell>
        <mxCell id="12lHFFpcLLlAsnCE0LpX-39" value="&lt;font style=&quot;font-size: 10px;&quot;&gt;Mendapatkan nomor invoice dan saldo terbaru setelah terpotong&lt;/font&gt;" style="rounded=1;whiteSpace=wrap;html=1;shadow=0;labelBackgroundColor=none;strokeWidth=1;fontFamily=Verdana;fontSize=8;align=center;" vertex="1" parent="12lHFFpcLLlAsnCE0LpX-18">
          <mxGeometry x="20" y="570" width="100" height="60" as="geometry" />
        </mxCell>
        <mxCell id="12lHFFpcLLlAsnCE0LpX-22" value="" style="edgeStyle=orthogonalEdgeStyle;rounded=1;html=1;labelBackgroundColor=none;startArrow=none;startFill=0;startSize=5;endArrow=classicThin;endFill=1;endSize=5;jettySize=auto;orthogonalLoop=1;strokeWidth=1;fontFamily=Verdana;fontSize=8" edge="1" parent="12lHFFpcLLlAsnCE0LpX-17" source="12lHFFpcLLlAsnCE0LpX-19" target="12lHFFpcLLlAsnCE0LpX-25">
          <mxGeometry x="0.4286" y="15" relative="1" as="geometry">
            <mxPoint as="offset" />
          </mxGeometry>
        </mxCell>
        <mxCell id="12lHFFpcLLlAsnCE0LpX-23" value="Sistem" style="swimlane;html=1;startSize=20;" vertex="1" parent="12lHFFpcLLlAsnCE0LpX-17">
          <mxGeometry x="160" y="20" width="160" height="780" as="geometry">
            <mxRectangle x="160" y="20" width="40" height="540" as="alternateBounds" />
          </mxGeometry>
        </mxCell>
        <mxCell id="12lHFFpcLLlAsnCE0LpX-24" value="" style="edgeStyle=none;curved=1;rounded=0;orthogonalLoop=1;jettySize=auto;html=1;exitX=0.5;exitY=1;exitDx=0;exitDy=0;entryX=0.5;entryY=0;entryDx=0;entryDy=0;fontSize=12;startSize=8;endSize=8;" edge="1" parent="12lHFFpcLLlAsnCE0LpX-23" source="12lHFFpcLLlAsnCE0LpX-25" target="12lHFFpcLLlAsnCE0LpX-27">
          <mxGeometry x="-0.2308" y="20" relative="1" as="geometry">
            <mxPoint as="offset" />
          </mxGeometry>
        </mxCell>
        <mxCell id="12lHFFpcLLlAsnCE0LpX-25" value="Cek akun sudah terdaftar" style="rounded=1;whiteSpace=wrap;html=1;shadow=0;labelBackgroundColor=none;strokeWidth=1;fontFamily=Verdana;fontSize=8;align=center;" vertex="1" parent="12lHFFpcLLlAsnCE0LpX-23">
          <mxGeometry x="30" y="65" width="100" height="60" as="geometry" />
        </mxCell>
        <mxCell id="12lHFFpcLLlAsnCE0LpX-26" value="&lt;font style=&quot;font-size: 10px;&quot;&gt;Ya&lt;/font&gt;" style="edgeStyle=none;curved=1;rounded=0;orthogonalLoop=1;jettySize=auto;html=1;exitX=0.5;exitY=1;exitDx=0;exitDy=0;entryX=0.5;entryY=0;entryDx=0;entryDy=0;fontSize=12;startSize=8;endSize=8;" edge="1" parent="12lHFFpcLLlAsnCE0LpX-23" source="12lHFFpcLLlAsnCE0LpX-27" target="12lHFFpcLLlAsnCE0LpX-28">
          <mxGeometry relative="1" as="geometry" />
        </mxCell>
        <mxCell id="12lHFFpcLLlAsnCE0LpX-27" value="&lt;font style=&quot;font-size: 9px;&quot;&gt;User sudah terdaftar?&lt;/font&gt;" style="rhombus;whiteSpace=wrap;html=1;fontSize=16;" vertex="1" parent="12lHFFpcLLlAsnCE0LpX-23">
          <mxGeometry x="40" y="190" width="80" height="80" as="geometry" />
        </mxCell>
        <mxCell id="12lHFFpcLLlAsnCE0LpX-32" style="edgeStyle=none;curved=1;rounded=0;orthogonalLoop=1;jettySize=auto;html=1;exitX=0.5;exitY=1;exitDx=0;exitDy=0;entryX=0.5;entryY=0;entryDx=0;entryDy=0;fontSize=12;startSize=8;endSize=8;" edge="1" parent="12lHFFpcLLlAsnCE0LpX-23" source="12lHFFpcLLlAsnCE0LpX-28" target="12lHFFpcLLlAsnCE0LpX-31">
          <mxGeometry relative="1" as="geometry" />
        </mxCell>
        <mxCell id="12lHFFpcLLlAsnCE0LpX-28" value="Cek sisa saldo" style="rounded=1;whiteSpace=wrap;html=1;shadow=0;labelBackgroundColor=none;strokeWidth=1;fontFamily=Verdana;fontSize=8;align=center;" vertex="1" parent="12lHFFpcLLlAsnCE0LpX-23">
          <mxGeometry x="30" y="350" width="100" height="60" as="geometry" />
        </mxCell>
        <mxCell id="12lHFFpcLLlAsnCE0LpX-38" value="&lt;font style=&quot;font-size: 10px;&quot;&gt;Ya&lt;/font&gt;" style="edgeStyle=none;curved=1;rounded=0;orthogonalLoop=1;jettySize=auto;html=1;fontSize=12;startSize=8;endSize=8;" edge="1" parent="12lHFFpcLLlAsnCE0LpX-23" source="12lHFFpcLLlAsnCE0LpX-31" target="12lHFFpcLLlAsnCE0LpX-36">
          <mxGeometry x="-0.5" y="10" relative="1" as="geometry">
            <mxPoint as="offset" />
          </mxGeometry>
        </mxCell>
        <mxCell id="12lHFFpcLLlAsnCE0LpX-31" value="&lt;font style=&quot;font-size: 9px;&quot;&gt;Saldo ada?&lt;/font&gt;" style="rhombus;whiteSpace=wrap;html=1;fontSize=16;" vertex="1" parent="12lHFFpcLLlAsnCE0LpX-23">
          <mxGeometry x="40" y="450" width="80" height="80" as="geometry" />
        </mxCell>
        <mxCell id="12lHFFpcLLlAsnCE0LpX-36" value="&lt;font style=&quot;font-size: 10px;&quot;&gt;Proses potong saldo&lt;/font&gt;" style="rounded=1;whiteSpace=wrap;html=1;shadow=0;labelBackgroundColor=none;strokeWidth=1;fontFamily=Verdana;fontSize=8;align=center;" vertex="1" parent="12lHFFpcLLlAsnCE0LpX-23">
          <mxGeometry x="30" y="570" width="100" height="60" as="geometry" />
        </mxCell>
        <mxCell id="12lHFFpcLLlAsnCE0LpX-29" value="&lt;font&gt;&lt;font style=&quot;font-size: 10px;&quot;&gt;Tidak&lt;/font&gt;&lt;br&gt;&lt;/font&gt;" style="edgeStyle=none;curved=1;rounded=0;orthogonalLoop=1;jettySize=auto;html=1;exitX=0;exitY=0.5;exitDx=0;exitDy=0;entryX=1;entryY=0.5;entryDx=0;entryDy=0;fontSize=12;startSize=8;endSize=8;" edge="1" parent="12lHFFpcLLlAsnCE0LpX-17" source="12lHFFpcLLlAsnCE0LpX-27" target="12lHFFpcLLlAsnCE0LpX-20">
          <mxGeometry y="-20" relative="1" as="geometry">
            <mxPoint as="offset" />
          </mxGeometry>
        </mxCell>
        <mxCell id="12lHFFpcLLlAsnCE0LpX-33" value="&lt;font style=&quot;font-size: 10px;&quot;&gt;Tidak&lt;/font&gt;" style="edgeStyle=none;curved=1;rounded=0;orthogonalLoop=1;jettySize=auto;html=1;exitX=0;exitY=0.5;exitDx=0;exitDy=0;fontSize=12;startSize=8;endSize=8;entryX=1;entryY=0.5;entryDx=0;entryDy=0;" edge="1" parent="12lHFFpcLLlAsnCE0LpX-17" source="12lHFFpcLLlAsnCE0LpX-31" target="12lHFFpcLLlAsnCE0LpX-34">
          <mxGeometry x="-0.5" y="-20" relative="1" as="geometry">
            <mxPoint x="120" y="530" as="targetPoint" />
            <mxPoint as="offset" />
          </mxGeometry>
        </mxCell>
        <mxCell id="12lHFFpcLLlAsnCE0LpX-40" value="" style="edgeStyle=none;curved=1;rounded=0;orthogonalLoop=1;jettySize=auto;html=1;fontSize=12;startSize=8;endSize=8;" edge="1" parent="12lHFFpcLLlAsnCE0LpX-17" source="12lHFFpcLLlAsnCE0LpX-36" target="12lHFFpcLLlAsnCE0LpX-39">
          <mxGeometry relative="1" as="geometry" />
        </mxCell>
        <mxCell id="12lHFFpcLLlAsnCE0LpX-41" value="&lt;font style=&quot;font-size: 10px;&quot;&gt;Reversal&lt;br&gt;&lt;/font&gt;" style="swimlane;html=1;childLayout=stackLayout;startSize=20;rounded=0;shadow=0;labelBackgroundColor=none;strokeWidth=1;fontFamily=Verdana;fontSize=8;align=center;" vertex="1" collapsed="1" parent="1">
          <mxGeometry x="570" y="40" width="80" height="20" as="geometry">
            <mxRectangle x="570" y="40" width="320" height="510" as="alternateBounds" />
          </mxGeometry>
        </mxCell>
        <mxCell id="12lHFFpcLLlAsnCE0LpX-42" value="Klien" style="swimlane;html=1;startSize=20;" vertex="1" parent="12lHFFpcLLlAsnCE0LpX-41">
          <mxGeometry y="20" width="160" height="490" as="geometry">
            <mxRectangle y="20" width="40" height="540" as="alternateBounds" />
          </mxGeometry>
        </mxCell>
        <mxCell id="12lHFFpcLLlAsnCE0LpX-43" value="Request data invoice transaksi" style="rounded=1;whiteSpace=wrap;html=1;shadow=0;labelBackgroundColor=none;strokeWidth=1;fontFamily=Verdana;fontSize=8;align=center;" vertex="1" parent="12lHFFpcLLlAsnCE0LpX-42">
          <mxGeometry x="20" y="65" width="100" height="60" as="geometry" />
        </mxCell>
        <mxCell id="12lHFFpcLLlAsnCE0LpX-44" value="Notifikasi nomor invoice tidak ditemukan" style="rounded=1;whiteSpace=wrap;html=1;shadow=0;labelBackgroundColor=none;strokeWidth=1;fontFamily=Verdana;fontSize=8;align=center;" vertex="1" parent="12lHFFpcLLlAsnCE0LpX-42">
          <mxGeometry x="20" y="200" width="100" height="60" as="geometry" />
        </mxCell>
        <mxCell id="12lHFFpcLLlAsnCE0LpX-45" value="Informasi saldo terbaru setelah dikembalikan" style="rounded=1;whiteSpace=wrap;html=1;shadow=0;labelBackgroundColor=none;strokeWidth=1;fontFamily=Verdana;fontSize=8;align=center;" vertex="1" parent="12lHFFpcLLlAsnCE0LpX-42">
          <mxGeometry x="20" y="350" width="100" height="60" as="geometry" />
        </mxCell>
        <mxCell id="12lHFFpcLLlAsnCE0LpX-47" value="" style="edgeStyle=orthogonalEdgeStyle;rounded=1;html=1;labelBackgroundColor=none;startArrow=none;startFill=0;startSize=5;endArrow=classicThin;endFill=1;endSize=5;jettySize=auto;orthogonalLoop=1;strokeWidth=1;fontFamily=Verdana;fontSize=8" edge="1" parent="12lHFFpcLLlAsnCE0LpX-41" source="12lHFFpcLLlAsnCE0LpX-43" target="12lHFFpcLLlAsnCE0LpX-50">
          <mxGeometry x="0.4286" y="15" relative="1" as="geometry">
            <mxPoint as="offset" />
          </mxGeometry>
        </mxCell>
        <mxCell id="12lHFFpcLLlAsnCE0LpX-48" value="Sistem" style="swimlane;html=1;startSize=20;" vertex="1" parent="12lHFFpcLLlAsnCE0LpX-41">
          <mxGeometry x="160" y="20" width="160" height="490" as="geometry">
            <mxRectangle x="160" y="20" width="40" height="540" as="alternateBounds" />
          </mxGeometry>
        </mxCell>
        <mxCell id="12lHFFpcLLlAsnCE0LpX-49" value="" style="edgeStyle=none;curved=1;rounded=0;orthogonalLoop=1;jettySize=auto;html=1;exitX=0.5;exitY=1;exitDx=0;exitDy=0;entryX=0.5;entryY=0;entryDx=0;entryDy=0;fontSize=12;startSize=8;endSize=8;" edge="1" parent="12lHFFpcLLlAsnCE0LpX-48" source="12lHFFpcLLlAsnCE0LpX-50" target="12lHFFpcLLlAsnCE0LpX-52">
          <mxGeometry x="-0.2308" y="20" relative="1" as="geometry">
            <mxPoint as="offset" />
          </mxGeometry>
        </mxCell>
        <mxCell id="12lHFFpcLLlAsnCE0LpX-50" value="Cek nomor invoice" style="rounded=1;whiteSpace=wrap;html=1;shadow=0;labelBackgroundColor=none;strokeWidth=1;fontFamily=Verdana;fontSize=8;align=center;" vertex="1" parent="12lHFFpcLLlAsnCE0LpX-48">
          <mxGeometry x="30" y="65" width="100" height="60" as="geometry" />
        </mxCell>
        <mxCell id="12lHFFpcLLlAsnCE0LpX-51" value="&lt;font style=&quot;font-size: 10px;&quot;&gt;Ya&lt;/font&gt;" style="edgeStyle=none;curved=1;rounded=0;orthogonalLoop=1;jettySize=auto;html=1;exitX=0.5;exitY=1;exitDx=0;exitDy=0;entryX=0.5;entryY=0;entryDx=0;entryDy=0;fontSize=12;startSize=8;endSize=8;" edge="1" parent="12lHFFpcLLlAsnCE0LpX-48" source="12lHFFpcLLlAsnCE0LpX-52" target="12lHFFpcLLlAsnCE0LpX-54">
          <mxGeometry relative="1" as="geometry" />
        </mxCell>
        <mxCell id="12lHFFpcLLlAsnCE0LpX-52" value="&lt;font style=&quot;font-size: 9px;&quot;&gt;&lt;br&gt;Invoice ditemukan ?&lt;/font&gt;" style="rhombus;whiteSpace=wrap;html=1;fontSize=16;" vertex="1" parent="12lHFFpcLLlAsnCE0LpX-48">
          <mxGeometry x="40" y="190" width="80" height="80" as="geometry" />
        </mxCell>
        <mxCell id="12lHFFpcLLlAsnCE0LpX-54" value="Proses mengembalikan saldo" style="rounded=1;whiteSpace=wrap;html=1;shadow=0;labelBackgroundColor=none;strokeWidth=1;fontFamily=Verdana;fontSize=8;align=center;" vertex="1" parent="12lHFFpcLLlAsnCE0LpX-48">
          <mxGeometry x="30" y="350" width="100" height="60" as="geometry" />
        </mxCell>
        <mxCell id="12lHFFpcLLlAsnCE0LpX-58" value="&lt;font&gt;&lt;font style=&quot;font-size: 10px;&quot;&gt;Tidak&lt;/font&gt;&lt;br&gt;&lt;/font&gt;" style="edgeStyle=none;curved=1;rounded=0;orthogonalLoop=1;jettySize=auto;html=1;exitX=0;exitY=0.5;exitDx=0;exitDy=0;entryX=1;entryY=0.5;entryDx=0;entryDy=0;fontSize=12;startSize=8;endSize=8;" edge="1" parent="12lHFFpcLLlAsnCE0LpX-41" source="12lHFFpcLLlAsnCE0LpX-52" target="12lHFFpcLLlAsnCE0LpX-44">
          <mxGeometry y="-20" relative="1" as="geometry">
            <mxPoint as="offset" />
          </mxGeometry>
        </mxCell>
        <mxCell id="12lHFFpcLLlAsnCE0LpX-61" value="" style="edgeStyle=none;curved=1;rounded=0;orthogonalLoop=1;jettySize=auto;html=1;fontSize=12;startSize=8;endSize=8;" edge="1" parent="12lHFFpcLLlAsnCE0LpX-41" source="12lHFFpcLLlAsnCE0LpX-54" target="12lHFFpcLLlAsnCE0LpX-45">
          <mxGeometry relative="1" as="geometry" />
        </mxCell>
        <mxCell id="12lHFFpcLLlAsnCE0LpX-62" value="&lt;font style=&quot;font-size: 10px;&quot;&gt;Topup&lt;br&gt;&lt;/font&gt;" style="swimlane;html=1;childLayout=stackLayout;startSize=20;rounded=0;shadow=0;labelBackgroundColor=none;strokeWidth=1;fontFamily=Verdana;fontSize=8;align=center;" vertex="1" collapsed="1" parent="1">
          <mxGeometry x="880" y="40" width="80" height="20" as="geometry">
            <mxRectangle x="880" y="40" width="490" height="1020" as="alternateBounds" />
          </mxGeometry>
        </mxCell>
        <mxCell id="12lHFFpcLLlAsnCE0LpX-63" value="Klien" style="swimlane;html=1;startSize=20;" vertex="1" parent="12lHFFpcLLlAsnCE0LpX-62">
          <mxGeometry y="20" width="160" height="1000" as="geometry">
            <mxRectangle y="20" width="40" height="540" as="alternateBounds" />
          </mxGeometry>
        </mxCell>
        <mxCell id="12lHFFpcLLlAsnCE0LpX-64" value="Request topup data paket dan metode pembayaran" style="rounded=1;whiteSpace=wrap;html=1;shadow=0;labelBackgroundColor=none;strokeWidth=1;fontFamily=Verdana;fontSize=8;align=center;" vertex="1" parent="12lHFFpcLLlAsnCE0LpX-63">
          <mxGeometry x="20" y="65" width="100" height="60" as="geometry" />
        </mxCell>
        <mxCell id="12lHFFpcLLlAsnCE0LpX-65" value="Notifikasi paket tidak tersedia" style="rounded=1;whiteSpace=wrap;html=1;shadow=0;labelBackgroundColor=none;strokeWidth=1;fontFamily=Verdana;fontSize=8;align=center;" vertex="1" parent="12lHFFpcLLlAsnCE0LpX-63">
          <mxGeometry x="20" y="200" width="100" height="60" as="geometry" />
        </mxCell>
        <mxCell id="12lHFFpcLLlAsnCE0LpX-83" value="Notifikasi metode pembayaran tidak tersedia" style="rounded=1;whiteSpace=wrap;html=1;shadow=0;labelBackgroundColor=none;strokeWidth=1;fontFamily=Verdana;fontSize=8;align=center;" vertex="1" parent="12lHFFpcLLlAsnCE0LpX-63">
          <mxGeometry x="20" y="460" width="100" height="60" as="geometry" />
        </mxCell>
        <mxCell id="12lHFFpcLLlAsnCE0LpX-102" value="" style="edgeStyle=none;curved=1;rounded=0;orthogonalLoop=1;jettySize=auto;html=1;fontSize=12;startSize=8;endSize=8;" edge="1" parent="12lHFFpcLLlAsnCE0LpX-63" source="12lHFFpcLLlAsnCE0LpX-95" target="12lHFFpcLLlAsnCE0LpX-101">
          <mxGeometry relative="1" as="geometry" />
        </mxCell>
        <mxCell id="12lHFFpcLLlAsnCE0LpX-95" value="Informasi pembayaran" style="rounded=1;whiteSpace=wrap;html=1;shadow=0;labelBackgroundColor=none;strokeWidth=1;fontFamily=Verdana;fontSize=8;align=center;" vertex="1" parent="12lHFFpcLLlAsnCE0LpX-63">
          <mxGeometry x="20" y="680" width="100" height="60" as="geometry" />
        </mxCell>
        <mxCell id="12lHFFpcLLlAsnCE0LpX-101" value="&lt;span style=&quot;font-size: 9px;&quot;&gt;User melakukan pembayaran?&lt;/span&gt;" style="rhombus;whiteSpace=wrap;html=1;fontSize=16;" vertex="1" parent="12lHFFpcLLlAsnCE0LpX-63">
          <mxGeometry x="30" y="790" width="80" height="80" as="geometry" />
        </mxCell>
        <mxCell id="12lHFFpcLLlAsnCE0LpX-67" value="" style="edgeStyle=orthogonalEdgeStyle;rounded=1;html=1;labelBackgroundColor=none;startArrow=none;startFill=0;startSize=5;endArrow=classicThin;endFill=1;endSize=5;jettySize=auto;orthogonalLoop=1;strokeWidth=1;fontFamily=Verdana;fontSize=8" edge="1" parent="12lHFFpcLLlAsnCE0LpX-62" source="12lHFFpcLLlAsnCE0LpX-64" target="12lHFFpcLLlAsnCE0LpX-70">
          <mxGeometry x="0.4286" y="15" relative="1" as="geometry">
            <mxPoint as="offset" />
          </mxGeometry>
        </mxCell>
        <mxCell id="12lHFFpcLLlAsnCE0LpX-68" value="Sistem" style="swimlane;html=1;startSize=20;" vertex="1" parent="12lHFFpcLLlAsnCE0LpX-62">
          <mxGeometry x="160" y="20" width="160" height="1000" as="geometry">
            <mxRectangle x="160" y="20" width="40" height="540" as="alternateBounds" />
          </mxGeometry>
        </mxCell>
        <mxCell id="12lHFFpcLLlAsnCE0LpX-69" value="" style="edgeStyle=none;curved=1;rounded=0;orthogonalLoop=1;jettySize=auto;html=1;exitX=0.5;exitY=1;exitDx=0;exitDy=0;entryX=0.5;entryY=0;entryDx=0;entryDy=0;fontSize=12;startSize=8;endSize=8;" edge="1" parent="12lHFFpcLLlAsnCE0LpX-68" source="12lHFFpcLLlAsnCE0LpX-70" target="12lHFFpcLLlAsnCE0LpX-72">
          <mxGeometry x="-0.2308" y="20" relative="1" as="geometry">
            <mxPoint as="offset" />
          </mxGeometry>
        </mxCell>
        <mxCell id="12lHFFpcLLlAsnCE0LpX-70" value="Cek paket" style="rounded=1;whiteSpace=wrap;html=1;shadow=0;labelBackgroundColor=none;strokeWidth=1;fontFamily=Verdana;fontSize=8;align=center;" vertex="1" parent="12lHFFpcLLlAsnCE0LpX-68">
          <mxGeometry x="30" y="65" width="100" height="60" as="geometry" />
        </mxCell>
        <mxCell id="12lHFFpcLLlAsnCE0LpX-71" value="&lt;font style=&quot;font-size: 10px;&quot;&gt;Ya&lt;/font&gt;" style="edgeStyle=none;curved=1;rounded=0;orthogonalLoop=1;jettySize=auto;html=1;exitX=0.5;exitY=1;exitDx=0;exitDy=0;entryX=0.5;entryY=0;entryDx=0;entryDy=0;fontSize=12;startSize=8;endSize=8;" edge="1" parent="12lHFFpcLLlAsnCE0LpX-68" source="12lHFFpcLLlAsnCE0LpX-72" target="12lHFFpcLLlAsnCE0LpX-73">
          <mxGeometry relative="1" as="geometry" />
        </mxCell>
        <mxCell id="12lHFFpcLLlAsnCE0LpX-72" value="&lt;span style=&quot;font-size: 9px;&quot;&gt;Paket tersedia?&lt;/span&gt;" style="rhombus;whiteSpace=wrap;html=1;fontSize=16;" vertex="1" parent="12lHFFpcLLlAsnCE0LpX-68">
          <mxGeometry x="40" y="190" width="80" height="80" as="geometry" />
        </mxCell>
        <mxCell id="12lHFFpcLLlAsnCE0LpX-85" value="" style="edgeStyle=none;curved=1;rounded=0;orthogonalLoop=1;jettySize=auto;html=1;fontSize=12;startSize=8;endSize=8;" edge="1" parent="12lHFFpcLLlAsnCE0LpX-68" source="12lHFFpcLLlAsnCE0LpX-73" target="12lHFFpcLLlAsnCE0LpX-84">
          <mxGeometry relative="1" as="geometry" />
        </mxCell>
        <mxCell id="12lHFFpcLLlAsnCE0LpX-73" value="Cek metode pembayaran" style="rounded=1;whiteSpace=wrap;html=1;shadow=0;labelBackgroundColor=none;strokeWidth=1;fontFamily=Verdana;fontSize=8;align=center;" vertex="1" parent="12lHFFpcLLlAsnCE0LpX-68">
          <mxGeometry x="30" y="350" width="100" height="60" as="geometry" />
        </mxCell>
        <mxCell id="12lHFFpcLLlAsnCE0LpX-88" value="&lt;font style=&quot;font-size: 10px;&quot;&gt;Ya&lt;/font&gt;" style="edgeStyle=none;curved=1;rounded=0;orthogonalLoop=1;jettySize=auto;html=1;fontSize=12;startSize=8;endSize=8;" edge="1" parent="12lHFFpcLLlAsnCE0LpX-68" source="12lHFFpcLLlAsnCE0LpX-84" target="12lHFFpcLLlAsnCE0LpX-87">
          <mxGeometry x="-0.5" y="10" relative="1" as="geometry">
            <mxPoint as="offset" />
          </mxGeometry>
        </mxCell>
        <mxCell id="12lHFFpcLLlAsnCE0LpX-84" value="&lt;span style=&quot;font-size: 9px;&quot;&gt;Metode pembayaran tersedia?&lt;/span&gt;" style="rhombus;whiteSpace=wrap;html=1;fontSize=16;" vertex="1" parent="12lHFFpcLLlAsnCE0LpX-68">
          <mxGeometry x="40" y="450" width="80" height="80" as="geometry" />
        </mxCell>
        <mxCell id="12lHFFpcLLlAsnCE0LpX-87" value="Request metode pembayaran" style="rounded=1;whiteSpace=wrap;html=1;shadow=0;labelBackgroundColor=none;strokeWidth=1;fontFamily=Verdana;fontSize=8;align=center;" vertex="1" parent="12lHFFpcLLlAsnCE0LpX-68">
          <mxGeometry x="30" y="570" width="100" height="60" as="geometry" />
        </mxCell>
        <mxCell id="12lHFFpcLLlAsnCE0LpX-92" value="Menyimpan permintaan topup dan respon Xendit" style="rounded=1;whiteSpace=wrap;html=1;shadow=0;labelBackgroundColor=none;strokeWidth=1;fontFamily=Verdana;fontSize=8;align=center;" vertex="1" parent="12lHFFpcLLlAsnCE0LpX-68">
          <mxGeometry x="30" y="680" width="100" height="60" as="geometry" />
        </mxCell>
        <mxCell id="12lHFFpcLLlAsnCE0LpX-104" value="Menyimpan permintaan topup dan respon Xendit" style="rounded=1;whiteSpace=wrap;html=1;shadow=0;labelBackgroundColor=none;strokeWidth=1;fontFamily=Verdana;fontSize=8;align=center;" vertex="1" parent="12lHFFpcLLlAsnCE0LpX-68">
          <mxGeometry x="30" y="800" width="100" height="60" as="geometry" />
        </mxCell>
        <mxCell id="12lHFFpcLLlAsnCE0LpX-109" value="Menambahkan saldo sesuai paket" style="rounded=1;whiteSpace=wrap;html=1;shadow=0;labelBackgroundColor=none;strokeWidth=1;fontFamily=Verdana;fontSize=8;align=center;" vertex="1" parent="12lHFFpcLLlAsnCE0LpX-68">
          <mxGeometry x="30" y="910" width="100" height="60" as="geometry" />
        </mxCell>
        <mxCell id="12lHFFpcLLlAsnCE0LpX-76" value="Xendit" style="swimlane;html=1;startSize=20;" vertex="1" parent="12lHFFpcLLlAsnCE0LpX-62">
          <mxGeometry x="320" y="20" width="170" height="1000" as="geometry">
            <mxRectangle x="160" y="20" width="40" height="540" as="alternateBounds" />
          </mxGeometry>
        </mxCell>
        <mxCell id="12lHFFpcLLlAsnCE0LpX-81" value="Proses metode Pembayaran" style="rounded=1;whiteSpace=wrap;html=1;shadow=0;labelBackgroundColor=none;strokeWidth=1;fontFamily=Verdana;fontSize=8;align=center;" vertex="1" parent="12lHFFpcLLlAsnCE0LpX-76">
          <mxGeometry x="20" y="570" width="100" height="60" as="geometry" />
        </mxCell>
        <mxCell id="12lHFFpcLLlAsnCE0LpX-108" value="Callback ke sistem pembayaran berhasil dilakukan user" style="rounded=1;whiteSpace=wrap;html=1;shadow=0;labelBackgroundColor=none;strokeWidth=1;fontFamily=Verdana;fontSize=8;align=center;" vertex="1" parent="12lHFFpcLLlAsnCE0LpX-76">
          <mxGeometry x="20" y="910" width="100" height="60" as="geometry" />
        </mxCell>
        <mxCell id="12lHFFpcLLlAsnCE0LpX-74" value="&lt;font&gt;&lt;font style=&quot;font-size: 10px;&quot;&gt;Tidak&lt;/font&gt;&lt;br&gt;&lt;/font&gt;" style="edgeStyle=none;curved=1;rounded=0;orthogonalLoop=1;jettySize=auto;html=1;exitX=0;exitY=0.5;exitDx=0;exitDy=0;entryX=1;entryY=0.5;entryDx=0;entryDy=0;fontSize=12;startSize=8;endSize=8;" edge="1" parent="12lHFFpcLLlAsnCE0LpX-62" source="12lHFFpcLLlAsnCE0LpX-72" target="12lHFFpcLLlAsnCE0LpX-65">
          <mxGeometry y="-20" relative="1" as="geometry">
            <mxPoint as="offset" />
          </mxGeometry>
        </mxCell>
        <mxCell id="12lHFFpcLLlAsnCE0LpX-86" value="&lt;font style=&quot;font-size: 10px;&quot;&gt;Tidak&lt;/font&gt;" style="edgeStyle=none;curved=1;rounded=0;orthogonalLoop=1;jettySize=auto;html=1;fontSize=12;startSize=8;endSize=8;" edge="1" parent="12lHFFpcLLlAsnCE0LpX-62" source="12lHFFpcLLlAsnCE0LpX-84" target="12lHFFpcLLlAsnCE0LpX-83">
          <mxGeometry x="0.5" y="-20" relative="1" as="geometry">
            <mxPoint as="offset" />
          </mxGeometry>
        </mxCell>
        <mxCell id="12lHFFpcLLlAsnCE0LpX-89" value="" style="edgeStyle=none;curved=1;rounded=0;orthogonalLoop=1;jettySize=auto;html=1;fontSize=12;startSize=8;endSize=8;" edge="1" parent="12lHFFpcLLlAsnCE0LpX-62" source="12lHFFpcLLlAsnCE0LpX-87" target="12lHFFpcLLlAsnCE0LpX-81">
          <mxGeometry relative="1" as="geometry" />
        </mxCell>
        <mxCell id="12lHFFpcLLlAsnCE0LpX-94" value="" style="edgeStyle=none;rounded=0;orthogonalLoop=1;jettySize=auto;html=1;fontSize=12;startSize=8;endSize=8;entryX=1;entryY=0.5;entryDx=0;entryDy=0;" edge="1" parent="12lHFFpcLLlAsnCE0LpX-62" source="12lHFFpcLLlAsnCE0LpX-81" target="12lHFFpcLLlAsnCE0LpX-92">
          <mxGeometry relative="1" as="geometry">
            <mxPoint x="390" y="770" as="targetPoint" />
            <Array as="points">
              <mxPoint x="390" y="730" />
            </Array>
          </mxGeometry>
        </mxCell>
        <mxCell id="12lHFFpcLLlAsnCE0LpX-96" value="" style="edgeStyle=none;curved=1;rounded=0;orthogonalLoop=1;jettySize=auto;html=1;fontSize=12;startSize=8;endSize=8;" edge="1" parent="12lHFFpcLLlAsnCE0LpX-62" source="12lHFFpcLLlAsnCE0LpX-92" target="12lHFFpcLLlAsnCE0LpX-95">
          <mxGeometry relative="1" as="geometry" />
        </mxCell>
        <mxCell id="12lHFFpcLLlAsnCE0LpX-105" value="" style="edgeStyle=none;curved=1;rounded=0;orthogonalLoop=1;jettySize=auto;html=1;fontSize=12;startSize=8;endSize=8;" edge="1" parent="12lHFFpcLLlAsnCE0LpX-62" source="12lHFFpcLLlAsnCE0LpX-101" target="12lHFFpcLLlAsnCE0LpX-104">
          <mxGeometry relative="1" as="geometry" />
        </mxCell>
        <mxCell id="12lHFFpcLLlAsnCE0LpX-106" value="&lt;font style=&quot;font-size: 10px;&quot;&gt;Tidak&lt;/font&gt;" style="edgeLabel;html=1;align=center;verticalAlign=middle;resizable=0;points=[];fontSize=16;" vertex="1" connectable="0" parent="12lHFFpcLLlAsnCE0LpX-105">
          <mxGeometry x="-0.2" relative="1" as="geometry">
            <mxPoint x="-12" y="-20" as="offset" />
          </mxGeometry>
        </mxCell>
        <mxCell id="12lHFFpcLLlAsnCE0LpX-110" value="" style="edgeStyle=none;curved=1;rounded=0;orthogonalLoop=1;jettySize=auto;html=1;fontSize=12;startSize=8;endSize=8;" edge="1" parent="12lHFFpcLLlAsnCE0LpX-62" source="12lHFFpcLLlAsnCE0LpX-108" target="12lHFFpcLLlAsnCE0LpX-109">
          <mxGeometry relative="1" as="geometry" />
        </mxCell>
        <mxCell id="12lHFFpcLLlAsnCE0LpX-112" style="edgeStyle=none;rounded=0;orthogonalLoop=1;jettySize=auto;html=1;exitX=0.5;exitY=1;exitDx=0;exitDy=0;entryX=0.5;entryY=0;entryDx=0;entryDy=0;fontSize=12;startSize=8;endSize=8;" edge="1" parent="12lHFFpcLLlAsnCE0LpX-62" source="12lHFFpcLLlAsnCE0LpX-101" target="12lHFFpcLLlAsnCE0LpX-108">
          <mxGeometry relative="1" as="geometry">
            <Array as="points">
              <mxPoint x="390" y="890" />
            </Array>
          </mxGeometry>
        </mxCell>
        <mxCell id="12lHFFpcLLlAsnCE0LpX-113" value="&lt;font style=&quot;font-size: 10px;&quot;&gt;Buat Akun&lt;br&gt;&lt;/font&gt;" style="swimlane;html=1;childLayout=stackLayout;startSize=20;rounded=0;shadow=0;labelBackgroundColor=none;strokeWidth=1;fontFamily=Verdana;fontSize=8;align=center;" vertex="1" collapsed="1" parent="1">
          <mxGeometry x="1260" y="40" width="80" height="20" as="geometry">
            <mxRectangle x="1260" y="40" width="320" height="510" as="alternateBounds" />
          </mxGeometry>
        </mxCell>
        <mxCell id="12lHFFpcLLlAsnCE0LpX-114" value="Klien" style="swimlane;html=1;startSize=20;" vertex="1" parent="12lHFFpcLLlAsnCE0LpX-113">
          <mxGeometry y="20" width="160" height="490" as="geometry">
            <mxRectangle y="20" width="40" height="540" as="alternateBounds" />
          </mxGeometry>
        </mxCell>
        <mxCell id="12lHFFpcLLlAsnCE0LpX-115" value="Request data user" style="rounded=1;whiteSpace=wrap;html=1;shadow=0;labelBackgroundColor=none;strokeWidth=1;fontFamily=Verdana;fontSize=8;align=center;" vertex="1" parent="12lHFFpcLLlAsnCE0LpX-114">
          <mxGeometry x="20" y="65" width="100" height="60" as="geometry" />
        </mxCell>
        <mxCell id="12lHFFpcLLlAsnCE0LpX-116" value="Notifikasi akun sudah pernah dibuat" style="rounded=1;whiteSpace=wrap;html=1;shadow=0;labelBackgroundColor=none;strokeWidth=1;fontFamily=Verdana;fontSize=8;align=center;" vertex="1" parent="12lHFFpcLLlAsnCE0LpX-114">
          <mxGeometry x="20" y="200" width="100" height="60" as="geometry" />
        </mxCell>
        <mxCell id="12lHFFpcLLlAsnCE0LpX-117" value="Notifikasi user telah dibuat" style="rounded=1;whiteSpace=wrap;html=1;shadow=0;labelBackgroundColor=none;strokeWidth=1;fontFamily=Verdana;fontSize=8;align=center;" vertex="1" parent="12lHFFpcLLlAsnCE0LpX-114">
          <mxGeometry x="20" y="350" width="100" height="60" as="geometry" />
        </mxCell>
        <mxCell id="12lHFFpcLLlAsnCE0LpX-118" value="" style="edgeStyle=orthogonalEdgeStyle;rounded=1;html=1;labelBackgroundColor=none;startArrow=none;startFill=0;startSize=5;endArrow=classicThin;endFill=1;endSize=5;jettySize=auto;orthogonalLoop=1;strokeWidth=1;fontFamily=Verdana;fontSize=8" edge="1" parent="12lHFFpcLLlAsnCE0LpX-113" source="12lHFFpcLLlAsnCE0LpX-115" target="12lHFFpcLLlAsnCE0LpX-121">
          <mxGeometry x="0.4286" y="15" relative="1" as="geometry">
            <mxPoint as="offset" />
          </mxGeometry>
        </mxCell>
        <mxCell id="12lHFFpcLLlAsnCE0LpX-119" value="Sistem" style="swimlane;html=1;startSize=20;" vertex="1" parent="12lHFFpcLLlAsnCE0LpX-113">
          <mxGeometry x="160" y="20" width="160" height="490" as="geometry">
            <mxRectangle x="160" y="20" width="40" height="540" as="alternateBounds" />
          </mxGeometry>
        </mxCell>
        <mxCell id="12lHFFpcLLlAsnCE0LpX-120" value="" style="edgeStyle=none;curved=1;rounded=0;orthogonalLoop=1;jettySize=auto;html=1;exitX=0.5;exitY=1;exitDx=0;exitDy=0;entryX=0.5;entryY=0;entryDx=0;entryDy=0;fontSize=12;startSize=8;endSize=8;" edge="1" parent="12lHFFpcLLlAsnCE0LpX-119" source="12lHFFpcLLlAsnCE0LpX-121" target="12lHFFpcLLlAsnCE0LpX-123">
          <mxGeometry x="-0.2308" y="20" relative="1" as="geometry">
            <mxPoint as="offset" />
          </mxGeometry>
        </mxCell>
        <mxCell id="12lHFFpcLLlAsnCE0LpX-121" value="Proses cek data" style="rounded=1;whiteSpace=wrap;html=1;shadow=0;labelBackgroundColor=none;strokeWidth=1;fontFamily=Verdana;fontSize=8;align=center;" vertex="1" parent="12lHFFpcLLlAsnCE0LpX-119">
          <mxGeometry x="30" y="65" width="100" height="60" as="geometry" />
        </mxCell>
        <mxCell id="12lHFFpcLLlAsnCE0LpX-122" value="&lt;font style=&quot;font-size: 10px;&quot;&gt;Tidak&lt;/font&gt;" style="edgeStyle=none;curved=1;rounded=0;orthogonalLoop=1;jettySize=auto;html=1;exitX=0.5;exitY=1;exitDx=0;exitDy=0;entryX=0.5;entryY=0;entryDx=0;entryDy=0;fontSize=12;startSize=8;endSize=8;" edge="1" parent="12lHFFpcLLlAsnCE0LpX-119" source="12lHFFpcLLlAsnCE0LpX-123" target="12lHFFpcLLlAsnCE0LpX-124">
          <mxGeometry x="-0.25" y="20" relative="1" as="geometry">
            <mxPoint as="offset" />
          </mxGeometry>
        </mxCell>
        <mxCell id="12lHFFpcLLlAsnCE0LpX-123" value="&lt;span style=&quot;font-size: 9px;&quot;&gt;Data sudah ada ?&lt;/span&gt;" style="rhombus;whiteSpace=wrap;html=1;fontSize=16;" vertex="1" parent="12lHFFpcLLlAsnCE0LpX-119">
          <mxGeometry x="40" y="190" width="80" height="80" as="geometry" />
        </mxCell>
        <mxCell id="12lHFFpcLLlAsnCE0LpX-124" value="Proses menyimpan data user" style="rounded=1;whiteSpace=wrap;html=1;shadow=0;labelBackgroundColor=none;strokeWidth=1;fontFamily=Verdana;fontSize=8;align=center;" vertex="1" parent="12lHFFpcLLlAsnCE0LpX-119">
          <mxGeometry x="30" y="350" width="100" height="60" as="geometry" />
        </mxCell>
        <mxCell id="12lHFFpcLLlAsnCE0LpX-125" value="&lt;font&gt;&lt;font style=&quot;font-size: 10px;&quot;&gt;Ya&lt;/font&gt;&lt;br&gt;&lt;/font&gt;" style="edgeStyle=none;curved=1;rounded=0;orthogonalLoop=1;jettySize=auto;html=1;exitX=0;exitY=0.5;exitDx=0;exitDy=0;entryX=1;entryY=0.5;entryDx=0;entryDy=0;fontSize=12;startSize=8;endSize=8;" edge="1" parent="12lHFFpcLLlAsnCE0LpX-113" source="12lHFFpcLLlAsnCE0LpX-123" target="12lHFFpcLLlAsnCE0LpX-116">
          <mxGeometry y="-20" relative="1" as="geometry">
            <mxPoint as="offset" />
          </mxGeometry>
        </mxCell>
        <mxCell id="12lHFFpcLLlAsnCE0LpX-126" value="" style="edgeStyle=none;curved=1;rounded=0;orthogonalLoop=1;jettySize=auto;html=1;fontSize=12;startSize=8;endSize=8;" edge="1" parent="12lHFFpcLLlAsnCE0LpX-113" source="12lHFFpcLLlAsnCE0LpX-124" target="12lHFFpcLLlAsnCE0LpX-117">
          <mxGeometry relative="1" as="geometry" />
        </mxCell>
        <mxCell id="12lHFFpcLLlAsnCE0LpX-127" value="&lt;font style=&quot;font-size: 10px;&quot;&gt;Riwayat Topup&lt;br&gt;&lt;/font&gt;" style="swimlane;html=1;childLayout=stackLayout;startSize=20;rounded=0;shadow=0;labelBackgroundColor=none;strokeWidth=1;fontFamily=Verdana;fontSize=8;align=center;" vertex="1" collapsed="1" parent="1">
          <mxGeometry x="1570" y="40" width="80" height="20" as="geometry">
            <mxRectangle x="1570" y="40" width="320" height="510" as="alternateBounds" />
          </mxGeometry>
        </mxCell>
        <mxCell id="12lHFFpcLLlAsnCE0LpX-128" value="Klien" style="swimlane;html=1;startSize=20;" vertex="1" parent="12lHFFpcLLlAsnCE0LpX-127">
          <mxGeometry y="20" width="160" height="490" as="geometry">
            <mxRectangle y="20" width="40" height="540" as="alternateBounds" />
          </mxGeometry>
        </mxCell>
        <mxCell id="12lHFFpcLLlAsnCE0LpX-129" value="Request data" style="rounded=1;whiteSpace=wrap;html=1;shadow=0;labelBackgroundColor=none;strokeWidth=1;fontFamily=Verdana;fontSize=8;align=center;" vertex="1" parent="12lHFFpcLLlAsnCE0LpX-128">
          <mxGeometry x="20" y="65" width="100" height="60" as="geometry" />
        </mxCell>
        <mxCell id="12lHFFpcLLlAsnCE0LpX-130" value="Informasi riwayat topup tidak tersedia" style="rounded=1;whiteSpace=wrap;html=1;shadow=0;labelBackgroundColor=none;strokeWidth=1;fontFamily=Verdana;fontSize=8;align=center;" vertex="1" parent="12lHFFpcLLlAsnCE0LpX-128">
          <mxGeometry x="20" y="200" width="100" height="60" as="geometry" />
        </mxCell>
        <mxCell id="12lHFFpcLLlAsnCE0LpX-131" value="Informasi riwayat topup" style="rounded=1;whiteSpace=wrap;html=1;shadow=0;labelBackgroundColor=none;strokeWidth=1;fontFamily=Verdana;fontSize=8;align=center;" vertex="1" parent="12lHFFpcLLlAsnCE0LpX-128">
          <mxGeometry x="20" y="310" width="100" height="60" as="geometry" />
        </mxCell>
        <mxCell id="12lHFFpcLLlAsnCE0LpX-132" value="" style="edgeStyle=orthogonalEdgeStyle;rounded=1;html=1;labelBackgroundColor=none;startArrow=none;startFill=0;startSize=5;endArrow=classicThin;endFill=1;endSize=5;jettySize=auto;orthogonalLoop=1;strokeWidth=1;fontFamily=Verdana;fontSize=8" edge="1" parent="12lHFFpcLLlAsnCE0LpX-127" source="12lHFFpcLLlAsnCE0LpX-129" target="12lHFFpcLLlAsnCE0LpX-135">
          <mxGeometry x="0.4286" y="15" relative="1" as="geometry">
            <mxPoint as="offset" />
          </mxGeometry>
        </mxCell>
        <mxCell id="12lHFFpcLLlAsnCE0LpX-133" value="Sistem" style="swimlane;html=1;startSize=20;" vertex="1" parent="12lHFFpcLLlAsnCE0LpX-127">
          <mxGeometry x="160" y="20" width="160" height="490" as="geometry">
            <mxRectangle x="160" y="20" width="40" height="540" as="alternateBounds" />
          </mxGeometry>
        </mxCell>
        <mxCell id="12lHFFpcLLlAsnCE0LpX-134" value="" style="edgeStyle=none;curved=1;rounded=0;orthogonalLoop=1;jettySize=auto;html=1;exitX=0.5;exitY=1;exitDx=0;exitDy=0;entryX=0.5;entryY=0;entryDx=0;entryDy=0;fontSize=12;startSize=8;endSize=8;" edge="1" parent="12lHFFpcLLlAsnCE0LpX-133" source="12lHFFpcLLlAsnCE0LpX-135" target="12lHFFpcLLlAsnCE0LpX-137">
          <mxGeometry x="-0.2308" y="20" relative="1" as="geometry">
            <mxPoint as="offset" />
          </mxGeometry>
        </mxCell>
        <mxCell id="12lHFFpcLLlAsnCE0LpX-135" value="Mencari riwayat topup" style="rounded=1;whiteSpace=wrap;html=1;shadow=0;labelBackgroundColor=none;strokeWidth=1;fontFamily=Verdana;fontSize=8;align=center;" vertex="1" parent="12lHFFpcLLlAsnCE0LpX-133">
          <mxGeometry x="30" y="65" width="100" height="60" as="geometry" />
        </mxCell>
        <mxCell id="12lHFFpcLLlAsnCE0LpX-173" value="" style="edgeStyle=none;curved=1;rounded=0;orthogonalLoop=1;jettySize=auto;html=1;fontSize=12;startSize=8;endSize=8;" edge="1" parent="12lHFFpcLLlAsnCE0LpX-133" source="12lHFFpcLLlAsnCE0LpX-137" target="12lHFFpcLLlAsnCE0LpX-172">
          <mxGeometry relative="1" as="geometry" />
        </mxCell>
        <mxCell id="12lHFFpcLLlAsnCE0LpX-175" value="&lt;font style=&quot;font-size: 10px;&quot;&gt;Ya&lt;/font&gt;" style="edgeLabel;html=1;align=center;verticalAlign=middle;resizable=0;points=[];fontSize=16;" vertex="1" connectable="0" parent="12lHFFpcLLlAsnCE0LpX-173">
          <mxGeometry x="-0.3" y="2" relative="1" as="geometry">
            <mxPoint x="8" as="offset" />
          </mxGeometry>
        </mxCell>
        <mxCell id="12lHFFpcLLlAsnCE0LpX-137" value="&lt;span style=&quot;font-size: 9px;&quot;&gt;Riwayat topup tersedia ?&lt;/span&gt;" style="rhombus;whiteSpace=wrap;html=1;fontSize=16;" vertex="1" parent="12lHFFpcLLlAsnCE0LpX-133">
          <mxGeometry x="40" y="190" width="80" height="80" as="geometry" />
        </mxCell>
        <mxCell id="12lHFFpcLLlAsnCE0LpX-172" value="Menampikan riwayat topup" style="rounded=1;whiteSpace=wrap;html=1;shadow=0;labelBackgroundColor=none;strokeWidth=1;fontFamily=Verdana;fontSize=8;align=center;" vertex="1" parent="12lHFFpcLLlAsnCE0LpX-133">
          <mxGeometry x="30" y="310" width="100" height="60" as="geometry" />
        </mxCell>
        <mxCell id="12lHFFpcLLlAsnCE0LpX-139" value="&lt;font&gt;&lt;font style=&quot;font-size: 10px;&quot;&gt;Tidak&lt;/font&gt;&lt;br&gt;&lt;/font&gt;" style="edgeStyle=none;curved=1;rounded=0;orthogonalLoop=1;jettySize=auto;html=1;exitX=0;exitY=0.5;exitDx=0;exitDy=0;entryX=1;entryY=0.5;entryDx=0;entryDy=0;fontSize=12;startSize=8;endSize=8;" edge="1" parent="12lHFFpcLLlAsnCE0LpX-127" source="12lHFFpcLLlAsnCE0LpX-137" target="12lHFFpcLLlAsnCE0LpX-130">
          <mxGeometry y="-20" relative="1" as="geometry">
            <mxPoint as="offset" />
          </mxGeometry>
        </mxCell>
        <mxCell id="12lHFFpcLLlAsnCE0LpX-174" value="" style="edgeStyle=none;curved=1;rounded=0;orthogonalLoop=1;jettySize=auto;html=1;fontSize=12;startSize=8;endSize=8;" edge="1" parent="12lHFFpcLLlAsnCE0LpX-127" source="12lHFFpcLLlAsnCE0LpX-172" target="12lHFFpcLLlAsnCE0LpX-131">
          <mxGeometry relative="1" as="geometry" />
        </mxCell>
        <mxCell id="12lHFFpcLLlAsnCE0LpX-141" value="&lt;font style=&quot;font-size: 10px;&quot;&gt;Daftar Paket&lt;br&gt;&lt;/font&gt;" style="swimlane;html=1;childLayout=stackLayout;startSize=20;rounded=0;shadow=0;labelBackgroundColor=none;strokeWidth=1;fontFamily=Verdana;fontSize=8;align=center;" vertex="1" collapsed="1" parent="1">
          <mxGeometry x="1990" y="40" width="80" height="20" as="geometry">
            <mxRectangle x="1990" y="40" width="320" height="510" as="alternateBounds" />
          </mxGeometry>
        </mxCell>
        <mxCell id="12lHFFpcLLlAsnCE0LpX-142" value="Klien" style="swimlane;html=1;startSize=20;" vertex="1" parent="12lHFFpcLLlAsnCE0LpX-141">
          <mxGeometry y="20" width="160" height="490" as="geometry">
            <mxRectangle y="20" width="40" height="540" as="alternateBounds" />
          </mxGeometry>
        </mxCell>
        <mxCell id="12lHFFpcLLlAsnCE0LpX-143" value="Request data" style="rounded=1;whiteSpace=wrap;html=1;shadow=0;labelBackgroundColor=none;strokeWidth=1;fontFamily=Verdana;fontSize=8;align=center;" vertex="1" parent="12lHFFpcLLlAsnCE0LpX-142">
          <mxGeometry x="20" y="65" width="100" height="60" as="geometry" />
        </mxCell>
        <mxCell id="12lHFFpcLLlAsnCE0LpX-144" value="Informasi paket tidak tersedia" style="rounded=1;whiteSpace=wrap;html=1;shadow=0;labelBackgroundColor=none;strokeWidth=1;fontFamily=Verdana;fontSize=8;align=center;" vertex="1" parent="12lHFFpcLLlAsnCE0LpX-142">
          <mxGeometry x="20" y="200" width="100" height="60" as="geometry" />
        </mxCell>
        <mxCell id="12lHFFpcLLlAsnCE0LpX-145" value="Informasi paket" style="rounded=1;whiteSpace=wrap;html=1;shadow=0;labelBackgroundColor=none;strokeWidth=1;fontFamily=Verdana;fontSize=8;align=center;" vertex="1" parent="12lHFFpcLLlAsnCE0LpX-142">
          <mxGeometry x="20" y="305" width="100" height="60" as="geometry" />
        </mxCell>
        <mxCell id="12lHFFpcLLlAsnCE0LpX-146" value="" style="edgeStyle=orthogonalEdgeStyle;rounded=1;html=1;labelBackgroundColor=none;startArrow=none;startFill=0;startSize=5;endArrow=classicThin;endFill=1;endSize=5;jettySize=auto;orthogonalLoop=1;strokeWidth=1;fontFamily=Verdana;fontSize=8" edge="1" parent="12lHFFpcLLlAsnCE0LpX-141" source="12lHFFpcLLlAsnCE0LpX-143" target="12lHFFpcLLlAsnCE0LpX-149">
          <mxGeometry x="0.4286" y="15" relative="1" as="geometry">
            <mxPoint as="offset" />
          </mxGeometry>
        </mxCell>
        <mxCell id="12lHFFpcLLlAsnCE0LpX-147" value="Sistem" style="swimlane;html=1;startSize=20;" vertex="1" parent="12lHFFpcLLlAsnCE0LpX-141">
          <mxGeometry x="160" y="20" width="160" height="490" as="geometry">
            <mxRectangle x="160" y="20" width="40" height="540" as="alternateBounds" />
          </mxGeometry>
        </mxCell>
        <mxCell id="12lHFFpcLLlAsnCE0LpX-148" value="" style="edgeStyle=none;curved=1;rounded=0;orthogonalLoop=1;jettySize=auto;html=1;exitX=0.5;exitY=1;exitDx=0;exitDy=0;entryX=0.5;entryY=0;entryDx=0;entryDy=0;fontSize=12;startSize=8;endSize=8;" edge="1" parent="12lHFFpcLLlAsnCE0LpX-147" source="12lHFFpcLLlAsnCE0LpX-149" target="12lHFFpcLLlAsnCE0LpX-150">
          <mxGeometry x="-0.2308" y="20" relative="1" as="geometry">
            <mxPoint as="offset" />
          </mxGeometry>
        </mxCell>
        <mxCell id="12lHFFpcLLlAsnCE0LpX-149" value="Mencari data paket yang terhubung dengan akun" style="rounded=1;whiteSpace=wrap;html=1;shadow=0;labelBackgroundColor=none;strokeWidth=1;fontFamily=Verdana;fontSize=8;align=center;" vertex="1" parent="12lHFFpcLLlAsnCE0LpX-147">
          <mxGeometry x="30" y="65" width="100" height="60" as="geometry" />
        </mxCell>
        <mxCell id="12lHFFpcLLlAsnCE0LpX-169" value="" style="edgeStyle=none;curved=1;rounded=0;orthogonalLoop=1;jettySize=auto;html=1;fontSize=12;startSize=8;endSize=8;" edge="1" parent="12lHFFpcLLlAsnCE0LpX-147" source="12lHFFpcLLlAsnCE0LpX-150" target="12lHFFpcLLlAsnCE0LpX-167">
          <mxGeometry relative="1" as="geometry" />
        </mxCell>
        <mxCell id="12lHFFpcLLlAsnCE0LpX-171" value="&lt;font style=&quot;font-size: 10px;&quot;&gt;Ya&lt;/font&gt;" style="edgeLabel;html=1;align=center;verticalAlign=middle;resizable=0;points=[];fontSize=16;" vertex="1" connectable="0" parent="12lHFFpcLLlAsnCE0LpX-169">
          <mxGeometry x="-0.2" relative="1" as="geometry">
            <mxPoint x="10" y="-4" as="offset" />
          </mxGeometry>
        </mxCell>
        <mxCell id="12lHFFpcLLlAsnCE0LpX-150" value="&lt;span style=&quot;font-size: 9px;&quot;&gt;Paket tersedia ?&lt;/span&gt;" style="rhombus;whiteSpace=wrap;html=1;fontSize=16;" vertex="1" parent="12lHFFpcLLlAsnCE0LpX-147">
          <mxGeometry x="40" y="190" width="80" height="80" as="geometry" />
        </mxCell>
        <mxCell id="12lHFFpcLLlAsnCE0LpX-167" value="Menampilkan informasi paket" style="rounded=1;whiteSpace=wrap;html=1;shadow=0;labelBackgroundColor=none;strokeWidth=1;fontFamily=Verdana;fontSize=8;align=center;" vertex="1" parent="12lHFFpcLLlAsnCE0LpX-147">
          <mxGeometry x="30" y="305" width="100" height="60" as="geometry" />
        </mxCell>
        <mxCell id="12lHFFpcLLlAsnCE0LpX-151" value="&lt;font&gt;&lt;font size=&quot;1&quot;&gt;Tidak&lt;/font&gt;&lt;br&gt;&lt;/font&gt;" style="edgeStyle=none;curved=1;rounded=0;orthogonalLoop=1;jettySize=auto;html=1;exitX=0;exitY=0.5;exitDx=0;exitDy=0;entryX=1;entryY=0.5;entryDx=0;entryDy=0;fontSize=12;startSize=8;endSize=8;" edge="1" parent="12lHFFpcLLlAsnCE0LpX-141" source="12lHFFpcLLlAsnCE0LpX-150" target="12lHFFpcLLlAsnCE0LpX-144">
          <mxGeometry y="-20" relative="1" as="geometry">
            <mxPoint as="offset" />
          </mxGeometry>
        </mxCell>
        <mxCell id="12lHFFpcLLlAsnCE0LpX-170" value="" style="edgeStyle=none;curved=1;rounded=0;orthogonalLoop=1;jettySize=auto;html=1;fontSize=12;startSize=8;endSize=8;" edge="1" parent="12lHFFpcLLlAsnCE0LpX-141" source="12lHFFpcLLlAsnCE0LpX-167" target="12lHFFpcLLlAsnCE0LpX-145">
          <mxGeometry relative="1" as="geometry" />
        </mxCell>
        <mxCell id="12lHFFpcLLlAsnCE0LpX-153" value="&lt;font style=&quot;font-size: 10px;&quot;&gt;Riwayat Penggunaan&lt;br&gt;&lt;/font&gt;" style="swimlane;html=1;childLayout=stackLayout;startSize=20;rounded=0;shadow=0;labelBackgroundColor=none;strokeWidth=1;fontFamily=Verdana;fontSize=8;align=center;" vertex="1" collapsed="1" parent="1">
          <mxGeometry x="70" y="340" width="80" height="20" as="geometry">
            <mxRectangle x="70" y="340" width="320" height="560" as="alternateBounds" />
          </mxGeometry>
        </mxCell>
        <mxCell id="12lHFFpcLLlAsnCE0LpX-154" value="Klien" style="swimlane;html=1;startSize=20;" vertex="1" parent="12lHFFpcLLlAsnCE0LpX-153">
          <mxGeometry y="20" width="160" height="540" as="geometry">
            <mxRectangle y="20" width="40" height="540" as="alternateBounds" />
          </mxGeometry>
        </mxCell>
        <mxCell id="12lHFFpcLLlAsnCE0LpX-155" value="Request data" style="rounded=1;whiteSpace=wrap;html=1;shadow=0;labelBackgroundColor=none;strokeWidth=1;fontFamily=Verdana;fontSize=8;align=center;" vertex="1" parent="12lHFFpcLLlAsnCE0LpX-154">
          <mxGeometry x="20" y="65" width="100" height="60" as="geometry" />
        </mxCell>
        <mxCell id="12lHFFpcLLlAsnCE0LpX-156" value="Informasi Riwayat penggunaan tidak tersedia" style="rounded=1;whiteSpace=wrap;html=1;shadow=0;labelBackgroundColor=none;strokeWidth=1;fontFamily=Verdana;fontSize=8;align=center;" vertex="1" parent="12lHFFpcLLlAsnCE0LpX-154">
          <mxGeometry x="20" y="200" width="100" height="60" as="geometry" />
        </mxCell>
        <mxCell id="12lHFFpcLLlAsnCE0LpX-157" value="Informasi riwayat penggunaan" style="rounded=1;whiteSpace=wrap;html=1;shadow=0;labelBackgroundColor=none;strokeWidth=1;fontFamily=Verdana;fontSize=8;align=center;" vertex="1" parent="12lHFFpcLLlAsnCE0LpX-154">
          <mxGeometry x="20" y="350" width="100" height="60" as="geometry" />
        </mxCell>
        <mxCell id="12lHFFpcLLlAsnCE0LpX-158" style="edgeStyle=orthogonalEdgeStyle;rounded=1;html=1;labelBackgroundColor=none;startArrow=none;startFill=0;startSize=5;endArrow=classicThin;endFill=1;endSize=5;jettySize=auto;orthogonalLoop=1;strokeWidth=1;fontFamily=Verdana;fontSize=8" edge="1" parent="12lHFFpcLLlAsnCE0LpX-153" source="12lHFFpcLLlAsnCE0LpX-155" target="12lHFFpcLLlAsnCE0LpX-161">
          <mxGeometry relative="1" as="geometry" />
        </mxCell>
        <mxCell id="12lHFFpcLLlAsnCE0LpX-159" value="Sistem" style="swimlane;html=1;startSize=20;" vertex="1" parent="12lHFFpcLLlAsnCE0LpX-153">
          <mxGeometry x="160" y="20" width="160" height="540" as="geometry">
            <mxRectangle x="160" y="20" width="40" height="540" as="alternateBounds" />
          </mxGeometry>
        </mxCell>
        <mxCell id="12lHFFpcLLlAsnCE0LpX-160" style="edgeStyle=none;curved=1;rounded=0;orthogonalLoop=1;jettySize=auto;html=1;exitX=0.5;exitY=1;exitDx=0;exitDy=0;entryX=0.5;entryY=0;entryDx=0;entryDy=0;fontSize=12;startSize=8;endSize=8;" edge="1" parent="12lHFFpcLLlAsnCE0LpX-159" source="12lHFFpcLLlAsnCE0LpX-161" target="12lHFFpcLLlAsnCE0LpX-163">
          <mxGeometry relative="1" as="geometry" />
        </mxCell>
        <mxCell id="12lHFFpcLLlAsnCE0LpX-161" value="Mencari riwayat penggunaan" style="rounded=1;whiteSpace=wrap;html=1;shadow=0;labelBackgroundColor=none;strokeWidth=1;fontFamily=Verdana;fontSize=8;align=center;" vertex="1" parent="12lHFFpcLLlAsnCE0LpX-159">
          <mxGeometry x="30" y="65" width="100" height="60" as="geometry" />
        </mxCell>
        <mxCell id="12lHFFpcLLlAsnCE0LpX-162" value="&lt;font style=&quot;font-size: 10px;&quot;&gt;Ya&lt;/font&gt;" style="edgeStyle=none;curved=1;rounded=0;orthogonalLoop=1;jettySize=auto;html=1;exitX=0.5;exitY=1;exitDx=0;exitDy=0;entryX=0.5;entryY=0;entryDx=0;entryDy=0;fontSize=12;startSize=8;endSize=8;" edge="1" parent="12lHFFpcLLlAsnCE0LpX-159" source="12lHFFpcLLlAsnCE0LpX-163" target="12lHFFpcLLlAsnCE0LpX-164">
          <mxGeometry relative="1" as="geometry" />
        </mxCell>
        <mxCell id="12lHFFpcLLlAsnCE0LpX-163" value="&lt;font style=&quot;font-size: 9px;&quot;&gt;Riwayat penggunaan terseida ?&lt;/font&gt;" style="rhombus;whiteSpace=wrap;html=1;fontSize=16;" vertex="1" parent="12lHFFpcLLlAsnCE0LpX-159">
          <mxGeometry x="40" y="190" width="80" height="80" as="geometry" />
        </mxCell>
        <mxCell id="12lHFFpcLLlAsnCE0LpX-164" value="Menampilkan riwayat penggunaan" style="rounded=1;whiteSpace=wrap;html=1;shadow=0;labelBackgroundColor=none;strokeWidth=1;fontFamily=Verdana;fontSize=8;align=center;" vertex="1" parent="12lHFFpcLLlAsnCE0LpX-159">
          <mxGeometry x="30" y="350" width="100" height="60" as="geometry" />
        </mxCell>
        <mxCell id="12lHFFpcLLlAsnCE0LpX-165" value="&lt;font&gt;&lt;font style=&quot;font-size: 9px;&quot;&gt;Tidak&lt;/font&gt;&lt;br&gt;&lt;/font&gt;" style="edgeStyle=none;curved=1;rounded=0;orthogonalLoop=1;jettySize=auto;html=1;exitX=0;exitY=0.5;exitDx=0;exitDy=0;entryX=1;entryY=0.5;entryDx=0;entryDy=0;fontSize=12;startSize=8;endSize=8;" edge="1" parent="12lHFFpcLLlAsnCE0LpX-153" source="12lHFFpcLLlAsnCE0LpX-163" target="12lHFFpcLLlAsnCE0LpX-156">
          <mxGeometry y="-20" relative="1" as="geometry">
            <mxPoint as="offset" />
          </mxGeometry>
        </mxCell>
        <mxCell id="12lHFFpcLLlAsnCE0LpX-166" style="edgeStyle=none;curved=1;rounded=0;orthogonalLoop=1;jettySize=auto;html=1;exitX=0;exitY=0.5;exitDx=0;exitDy=0;entryX=1;entryY=0.5;entryDx=0;entryDy=0;fontSize=12;startSize=8;endSize=8;" edge="1" parent="12lHFFpcLLlAsnCE0LpX-153" source="12lHFFpcLLlAsnCE0LpX-164" target="12lHFFpcLLlAsnCE0LpX-157">
          <mxGeometry relative="1" as="geometry" />
        </mxCell>
        <mxCell id="12lHFFpcLLlAsnCE0LpX-177" value="&lt;font style=&quot;font-size: 10px;&quot;&gt;Metode Pembayaran&lt;br&gt;&lt;/font&gt;" style="swimlane;html=1;childLayout=stackLayout;startSize=20;rounded=0;shadow=0;labelBackgroundColor=none;strokeWidth=1;fontFamily=Verdana;fontSize=8;align=center;" vertex="1" collapsed="1" parent="1">
          <mxGeometry x="320" y="330" width="80" height="20" as="geometry">
            <mxRectangle x="320" y="330" width="320" height="340" as="alternateBounds" />
          </mxGeometry>
        </mxCell>
        <mxCell id="12lHFFpcLLlAsnCE0LpX-178" value="Klien" style="swimlane;html=1;startSize=20;" vertex="1" parent="12lHFFpcLLlAsnCE0LpX-177">
          <mxGeometry y="20" width="160" height="320" as="geometry">
            <mxRectangle y="20" width="40" height="540" as="alternateBounds" />
          </mxGeometry>
        </mxCell>
        <mxCell id="12lHFFpcLLlAsnCE0LpX-179" value="Request data" style="rounded=1;whiteSpace=wrap;html=1;shadow=0;labelBackgroundColor=none;strokeWidth=1;fontFamily=Verdana;fontSize=8;align=center;" vertex="1" parent="12lHFFpcLLlAsnCE0LpX-178">
          <mxGeometry x="20" y="65" width="100" height="60" as="geometry" />
        </mxCell>
        <mxCell id="12lHFFpcLLlAsnCE0LpX-180" value="Informasi metode pembayaran" style="rounded=1;whiteSpace=wrap;html=1;shadow=0;labelBackgroundColor=none;strokeWidth=1;fontFamily=Verdana;fontSize=8;align=center;" vertex="1" parent="12lHFFpcLLlAsnCE0LpX-178">
          <mxGeometry x="20" y="190" width="100" height="60" as="geometry" />
        </mxCell>
        <mxCell id="12lHFFpcLLlAsnCE0LpX-182" style="edgeStyle=orthogonalEdgeStyle;rounded=1;html=1;labelBackgroundColor=none;startArrow=none;startFill=0;startSize=5;endArrow=classicThin;endFill=1;endSize=5;jettySize=auto;orthogonalLoop=1;strokeWidth=1;fontFamily=Verdana;fontSize=8" edge="1" parent="12lHFFpcLLlAsnCE0LpX-177" source="12lHFFpcLLlAsnCE0LpX-179" target="12lHFFpcLLlAsnCE0LpX-185">
          <mxGeometry relative="1" as="geometry" />
        </mxCell>
        <mxCell id="12lHFFpcLLlAsnCE0LpX-183" value="Sistem" style="swimlane;html=1;startSize=20;" vertex="1" parent="12lHFFpcLLlAsnCE0LpX-177">
          <mxGeometry x="160" y="20" width="160" height="320" as="geometry">
            <mxRectangle x="160" y="20" width="40" height="540" as="alternateBounds" />
          </mxGeometry>
        </mxCell>
        <mxCell id="12lHFFpcLLlAsnCE0LpX-192" value="" style="edgeStyle=none;curved=1;rounded=0;orthogonalLoop=1;jettySize=auto;html=1;fontSize=12;startSize=8;endSize=8;" edge="1" parent="12lHFFpcLLlAsnCE0LpX-183" source="12lHFFpcLLlAsnCE0LpX-185" target="12lHFFpcLLlAsnCE0LpX-191">
          <mxGeometry relative="1" as="geometry" />
        </mxCell>
        <mxCell id="12lHFFpcLLlAsnCE0LpX-185" value="Mencari data metode pembayaran yang tersedia" style="rounded=1;whiteSpace=wrap;html=1;shadow=0;labelBackgroundColor=none;strokeWidth=1;fontFamily=Verdana;fontSize=8;align=center;" vertex="1" parent="12lHFFpcLLlAsnCE0LpX-183">
          <mxGeometry x="30" y="65" width="100" height="60" as="geometry" />
        </mxCell>
        <mxCell id="12lHFFpcLLlAsnCE0LpX-191" value="Menampilkan metode pembayaran yang tersedia" style="rounded=1;whiteSpace=wrap;html=1;shadow=0;labelBackgroundColor=none;strokeWidth=1;fontFamily=Verdana;fontSize=8;align=center;" vertex="1" parent="12lHFFpcLLlAsnCE0LpX-183">
          <mxGeometry x="30" y="190" width="100" height="60" as="geometry" />
        </mxCell>
        <mxCell id="12lHFFpcLLlAsnCE0LpX-193" value="" style="edgeStyle=none;curved=1;rounded=0;orthogonalLoop=1;jettySize=auto;html=1;fontSize=12;startSize=8;endSize=8;" edge="1" parent="12lHFFpcLLlAsnCE0LpX-177" source="12lHFFpcLLlAsnCE0LpX-191" target="12lHFFpcLLlAsnCE0LpX-180">
          <mxGeometry relative="1" as="geometry" />
        </mxCell>
      </root>
    </mxGraphModel>
  </diagram>
  <diagram id="Z6jvuBU7DLo-VK0IN1Ib" name="Signdoc">
    <mxGraphModel dx="1298" dy="1082" grid="0" gridSize="10" guides="1" tooltips="1" connect="1" arrows="1" fold="1" page="0" pageScale="1" pageWidth="827" pageHeight="1169" math="0" shadow="0">
      <root>
        <mxCell id="0" />
        <mxCell id="1" parent="0" />
        <mxCell id="sp2xfN8j0PZ3_thhCW7K-1" value="&lt;font style=&quot;font-size: 10px;&quot;&gt;Tandatangan Dokumen&lt;br&gt;&lt;/font&gt;" style="swimlane;html=1;childLayout=stackLayout;startSize=20;rounded=0;shadow=0;labelBackgroundColor=none;strokeWidth=1;fontFamily=Verdana;fontSize=8;align=center;" vertex="1" parent="1">
          <mxGeometry x="-287" y="-124" width="320" height="681" as="geometry">
            <mxRectangle x="-287" y="-124" width="80" height="20" as="alternateBounds" />
          </mxGeometry>
        </mxCell>
        <mxCell id="sp2xfN8j0PZ3_thhCW7K-2" value="Klien" style="swimlane;html=1;startSize=20;" vertex="1" parent="sp2xfN8j0PZ3_thhCW7K-1">
          <mxGeometry y="20" width="160" height="661" as="geometry">
            <mxRectangle y="20" width="40" height="540" as="alternateBounds" />
          </mxGeometry>
        </mxCell>
        <mxCell id="sp2xfN8j0PZ3_thhCW7K-3" value="Request dokumen dan sertifikat" style="rounded=1;whiteSpace=wrap;html=1;shadow=0;labelBackgroundColor=none;strokeWidth=1;fontFamily=Verdana;fontSize=8;align=center;" vertex="1" parent="sp2xfN8j0PZ3_thhCW7K-2">
          <mxGeometry x="20" y="65" width="100" height="60" as="geometry" />
        </mxCell>
        <mxCell id="sp2xfN8j0PZ3_thhCW7K-4" value="Informasi gagal dokumen tidak dapat ditandatangani" style="rounded=1;whiteSpace=wrap;html=1;shadow=0;labelBackgroundColor=none;strokeWidth=1;fontFamily=Verdana;fontSize=8;align=center;" vertex="1" parent="sp2xfN8j0PZ3_thhCW7K-2">
          <mxGeometry x="27" y="200" width="100" height="60" as="geometry" />
        </mxCell>
        <mxCell id="sp2xfN8j0PZ3_thhCW7K-18" value="Informasi gagal setifikat tidak dapat digunakan" style="rounded=1;whiteSpace=wrap;html=1;shadow=0;labelBackgroundColor=none;strokeWidth=1;fontFamily=Verdana;fontSize=8;align=center;" vertex="1" parent="sp2xfN8j0PZ3_thhCW7K-2">
          <mxGeometry x="24" y="430" width="100" height="60" as="geometry" />
        </mxCell>
        <mxCell id="sp2xfN8j0PZ3_thhCW7K-26" value="Informasi dokumen terbaru setelah ditandatangani" style="rounded=1;whiteSpace=wrap;html=1;shadow=0;labelBackgroundColor=none;strokeWidth=1;fontFamily=Verdana;fontSize=8;align=center;" vertex="1" parent="sp2xfN8j0PZ3_thhCW7K-2">
          <mxGeometry x="30" y="552" width="100" height="60" as="geometry" />
        </mxCell>
        <mxCell id="sp2xfN8j0PZ3_thhCW7K-5" style="edgeStyle=orthogonalEdgeStyle;rounded=1;html=1;labelBackgroundColor=none;startArrow=none;startFill=0;startSize=5;endArrow=classicThin;endFill=1;endSize=5;jettySize=auto;orthogonalLoop=1;strokeWidth=1;fontFamily=Verdana;fontSize=8" edge="1" parent="sp2xfN8j0PZ3_thhCW7K-1" source="sp2xfN8j0PZ3_thhCW7K-3" target="sp2xfN8j0PZ3_thhCW7K-8">
          <mxGeometry relative="1" as="geometry" />
        </mxCell>
        <mxCell id="sp2xfN8j0PZ3_thhCW7K-6" value="Sistem" style="swimlane;html=1;startSize=20;" vertex="1" parent="sp2xfN8j0PZ3_thhCW7K-1">
          <mxGeometry x="160" y="20" width="157" height="661" as="geometry">
            <mxRectangle x="160" y="20" width="40" height="540" as="alternateBounds" />
          </mxGeometry>
        </mxCell>
        <mxCell id="sp2xfN8j0PZ3_thhCW7K-7" value="" style="edgeStyle=none;curved=1;rounded=0;orthogonalLoop=1;jettySize=auto;html=1;fontSize=12;startSize=8;endSize=8;" edge="1" parent="sp2xfN8j0PZ3_thhCW7K-6" source="sp2xfN8j0PZ3_thhCW7K-8">
          <mxGeometry relative="1" as="geometry">
            <mxPoint x="80" y="190" as="targetPoint" />
          </mxGeometry>
        </mxCell>
        <mxCell id="sp2xfN8j0PZ3_thhCW7K-8" value="Proses cek dokumen" style="rounded=1;whiteSpace=wrap;html=1;shadow=0;labelBackgroundColor=none;strokeWidth=1;fontFamily=Verdana;fontSize=8;align=center;" vertex="1" parent="sp2xfN8j0PZ3_thhCW7K-6">
          <mxGeometry x="30" y="65" width="100" height="60" as="geometry" />
        </mxCell>
        <mxCell id="sp2xfN8j0PZ3_thhCW7K-14" value="" style="edgeStyle=none;curved=1;rounded=0;orthogonalLoop=1;jettySize=auto;html=1;fontSize=12;startSize=8;endSize=8;" edge="1" parent="sp2xfN8j0PZ3_thhCW7K-6" source="sp2xfN8j0PZ3_thhCW7K-11" target="sp2xfN8j0PZ3_thhCW7K-13">
          <mxGeometry relative="1" as="geometry" />
        </mxCell>
        <mxCell id="sp2xfN8j0PZ3_thhCW7K-15" value="&lt;font style=&quot;font-size: 10px;&quot;&gt;Ya&lt;/font&gt;" style="edgeLabel;html=1;align=center;verticalAlign=middle;resizable=0;points=[];fontSize=16;" vertex="1" connectable="0" parent="sp2xfN8j0PZ3_thhCW7K-14">
          <mxGeometry x="-0.283" y="4" relative="1" as="geometry">
            <mxPoint x="5" as="offset" />
          </mxGeometry>
        </mxCell>
        <mxCell id="sp2xfN8j0PZ3_thhCW7K-11" value="&lt;font style=&quot;font-size: 10px;&quot;&gt;Dokumen dapat ditandatangani ?&lt;/font&gt;" style="rhombus;whiteSpace=wrap;html=1;fontSize=16;" vertex="1" parent="sp2xfN8j0PZ3_thhCW7K-6">
          <mxGeometry x="40" y="190" width="80" height="80" as="geometry" />
        </mxCell>
        <mxCell id="sp2xfN8j0PZ3_thhCW7K-20" value="" style="edgeStyle=none;curved=1;rounded=0;orthogonalLoop=1;jettySize=auto;html=1;fontSize=12;startSize=8;endSize=8;" edge="1" parent="sp2xfN8j0PZ3_thhCW7K-6" source="sp2xfN8j0PZ3_thhCW7K-13" target="sp2xfN8j0PZ3_thhCW7K-16">
          <mxGeometry relative="1" as="geometry" />
        </mxCell>
        <mxCell id="sp2xfN8j0PZ3_thhCW7K-13" value="Proses cek sertifikat" style="rounded=1;whiteSpace=wrap;html=1;shadow=0;labelBackgroundColor=none;strokeWidth=1;fontFamily=Verdana;fontSize=8;align=center;" vertex="1" parent="sp2xfN8j0PZ3_thhCW7K-6">
          <mxGeometry x="30" y="323" width="100" height="60" as="geometry" />
        </mxCell>
        <mxCell id="sp2xfN8j0PZ3_thhCW7K-25" value="&lt;font style=&quot;font-size: 10px;&quot;&gt;Ya&lt;/font&gt;" style="edgeStyle=none;curved=1;rounded=0;orthogonalLoop=1;jettySize=auto;html=1;fontSize=12;startSize=8;endSize=8;" edge="1" parent="sp2xfN8j0PZ3_thhCW7K-6" source="sp2xfN8j0PZ3_thhCW7K-16" target="sp2xfN8j0PZ3_thhCW7K-22">
          <mxGeometry relative="1" as="geometry" />
        </mxCell>
        <mxCell id="sp2xfN8j0PZ3_thhCW7K-16" value="&lt;font style=&quot;font-size: 10px;&quot;&gt;Sertifikat dapat digunakan ?&lt;br&gt;&lt;/font&gt;" style="rhombus;whiteSpace=wrap;html=1;fontSize=16;" vertex="1" parent="sp2xfN8j0PZ3_thhCW7K-6">
          <mxGeometry x="40" y="419" width="80" height="80" as="geometry" />
        </mxCell>
        <mxCell id="sp2xfN8j0PZ3_thhCW7K-22" value="Proses tandatangan dokumen dan input sertifikat" style="rounded=1;whiteSpace=wrap;html=1;shadow=0;labelBackgroundColor=none;strokeWidth=1;fontFamily=Verdana;fontSize=8;align=center;" vertex="1" parent="sp2xfN8j0PZ3_thhCW7K-6">
          <mxGeometry x="28.5" y="552" width="100" height="60" as="geometry" />
        </mxCell>
        <mxCell id="sp2xfN8j0PZ3_thhCW7K-12" value="&lt;font style=&quot;font-size: 10px;&quot;&gt;Tidak&lt;/font&gt;" style="edgeStyle=none;curved=1;rounded=0;orthogonalLoop=1;jettySize=auto;html=1;fontSize=12;startSize=8;endSize=8;" edge="1" parent="sp2xfN8j0PZ3_thhCW7K-1" source="sp2xfN8j0PZ3_thhCW7K-11" target="sp2xfN8j0PZ3_thhCW7K-4">
          <mxGeometry x="-0.3425" y="-16" relative="1" as="geometry">
            <mxPoint as="offset" />
          </mxGeometry>
        </mxCell>
        <mxCell id="sp2xfN8j0PZ3_thhCW7K-19" value="" style="edgeStyle=none;curved=1;rounded=0;orthogonalLoop=1;jettySize=auto;html=1;fontSize=12;startSize=8;endSize=8;" edge="1" parent="sp2xfN8j0PZ3_thhCW7K-1" source="sp2xfN8j0PZ3_thhCW7K-16" target="sp2xfN8j0PZ3_thhCW7K-18">
          <mxGeometry relative="1" as="geometry" />
        </mxCell>
        <mxCell id="sp2xfN8j0PZ3_thhCW7K-21" value="&lt;font style=&quot;font-size: 10px;&quot;&gt;Tidak&lt;/font&gt;" style="edgeLabel;html=1;align=center;verticalAlign=middle;resizable=0;points=[];fontSize=16;" vertex="1" connectable="0" parent="sp2xfN8j0PZ3_thhCW7K-19">
          <mxGeometry x="-0.2597" y="-3" relative="1" as="geometry">
            <mxPoint x="2" y="-8" as="offset" />
          </mxGeometry>
        </mxCell>
        <mxCell id="sp2xfN8j0PZ3_thhCW7K-27" value="" style="edgeStyle=none;curved=1;rounded=0;orthogonalLoop=1;jettySize=auto;html=1;fontSize=12;startSize=8;endSize=8;" edge="1" parent="sp2xfN8j0PZ3_thhCW7K-1" source="sp2xfN8j0PZ3_thhCW7K-22" target="sp2xfN8j0PZ3_thhCW7K-26">
          <mxGeometry relative="1" as="geometry" />
        </mxCell>
      </root>
    </mxGraphModel>
  </diagram>
</mxfile>
